<mxfile host="Electron" modified="2024-03-11T08:37:58.121Z" agent="Mozilla/5.0 (Windows NT 10.0; Win64; x64) AppleWebKit/537.36 (KHTML, like Gecko) draw.io/23.1.5 Chrome/120.0.6099.109 Electron/28.1.0 Safari/537.36" etag="Ygften-FOdHKl7PEE_Ku" version="23.1.5" type="device">
  <diagram id="prtHgNgQTEPvFCAcTncT" name="Page-1">
    <mxGraphModel dx="1518" dy="731" grid="1" gridSize="10" guides="1" tooltips="1" connect="1" arrows="1" fold="1" page="1" pageScale="1" pageWidth="827" pageHeight="1169" math="0" shadow="0">
      <root>
        <mxCell id="0" />
        <mxCell id="1" parent="0" />
        <mxCell id="rvnlkmC0Hyfo12VrQ8tP-1" value="EMS Main Flow" style="swimlane;childLayout=stackLayout;resizeParent=1;resizeParentMax=0;startSize=20;html=1;fillColor=#FFD966;" parent="1" vertex="1">
          <mxGeometry x="124" y="80" width="560" height="430" as="geometry" />
        </mxCell>
        <mxCell id="rvnlkmC0Hyfo12VrQ8tP-2" value="User" style="swimlane;startSize=20;html=1;fillColor=#CDA2BE;" parent="rvnlkmC0Hyfo12VrQ8tP-1" vertex="1">
          <mxGeometry y="20" width="290" height="410" as="geometry" />
        </mxCell>
        <mxCell id="rvnlkmC0Hyfo12VrQ8tP-10" style="edgeStyle=orthogonalEdgeStyle;rounded=0;orthogonalLoop=1;jettySize=auto;html=1;" parent="rvnlkmC0Hyfo12VrQ8tP-2" source="rvnlkmC0Hyfo12VrQ8tP-6" target="rvnlkmC0Hyfo12VrQ8tP-8" edge="1">
          <mxGeometry relative="1" as="geometry" />
        </mxCell>
        <mxCell id="rvnlkmC0Hyfo12VrQ8tP-6" value="&lt;font style=&quot;font-size: 10px;&quot;&gt;Create experiment&lt;br&gt;(Tune params)&lt;br&gt;&lt;/font&gt;" style="rounded=1;whiteSpace=wrap;html=1;fillColor=#CCCCFF;" parent="rvnlkmC0Hyfo12VrQ8tP-2" vertex="1">
          <mxGeometry x="74" y="70" width="160" height="40" as="geometry" />
        </mxCell>
        <mxCell id="rvnlkmC0Hyfo12VrQ8tP-9" style="edgeStyle=orthogonalEdgeStyle;rounded=0;orthogonalLoop=1;jettySize=auto;html=1;" parent="rvnlkmC0Hyfo12VrQ8tP-2" source="rvnlkmC0Hyfo12VrQ8tP-5" target="rvnlkmC0Hyfo12VrQ8tP-6" edge="1">
          <mxGeometry relative="1" as="geometry" />
        </mxCell>
        <mxCell id="rvnlkmC0Hyfo12VrQ8tP-5" value="" style="shape=waypoint;sketch=0;fillStyle=solid;size=6;pointerEvents=1;points=[];fillColor=none;resizable=0;rotatable=0;perimeter=centerPerimeter;snapToPoint=1;strokeWidth=6;" parent="rvnlkmC0Hyfo12VrQ8tP-2" vertex="1">
          <mxGeometry x="143.99999999999955" y="27" width="20" height="20" as="geometry" />
        </mxCell>
        <mxCell id="rvnlkmC0Hyfo12VrQ8tP-8" value="&lt;font style=&quot;font-size: 10px;&quot;&gt;Start experiment on click&lt;br&gt;&lt;/font&gt;" style="rounded=1;whiteSpace=wrap;html=1;fillColor=#CCCCFF;" parent="rvnlkmC0Hyfo12VrQ8tP-2" vertex="1">
          <mxGeometry x="74" y="130" width="160" height="40" as="geometry" />
        </mxCell>
        <mxCell id="rvnlkmC0Hyfo12VrQ8tP-18" value="&lt;font style=&quot;font-size: 10px;&quot;&gt;View process/result&lt;br&gt;&lt;/font&gt;" style="rounded=1;whiteSpace=wrap;html=1;fillColor=#CCCCFF;" parent="rvnlkmC0Hyfo12VrQ8tP-2" vertex="1">
          <mxGeometry x="74" y="200" width="160" height="40" as="geometry" />
        </mxCell>
        <mxCell id="rvnlkmC0Hyfo12VrQ8tP-21" value="&lt;font style=&quot;font-size: 10px;&quot;&gt;Done?&lt;/font&gt;" style="strokeWidth=1;html=1;shape=mxgraph.flowchart.decision;whiteSpace=wrap;fillColor=#FFE6CC;" parent="rvnlkmC0Hyfo12VrQ8tP-2" vertex="1">
          <mxGeometry x="104" y="290" width="100" height="40" as="geometry" />
        </mxCell>
        <mxCell id="rvnlkmC0Hyfo12VrQ8tP-24" value="&lt;font style=&quot;font-size: 10px;&quot;&gt;No&lt;/font&gt;" style="text;html=1;align=center;verticalAlign=middle;whiteSpace=wrap;rounded=0;" parent="rvnlkmC0Hyfo12VrQ8tP-2" vertex="1">
          <mxGeometry x="124" y="266" width="60" height="30" as="geometry" />
        </mxCell>
        <mxCell id="rvnlkmC0Hyfo12VrQ8tP-36" style="edgeStyle=orthogonalEdgeStyle;rounded=0;orthogonalLoop=1;jettySize=auto;html=1;entryX=0.5;entryY=0;entryDx=0;entryDy=0;" parent="rvnlkmC0Hyfo12VrQ8tP-2" source="rvnlkmC0Hyfo12VrQ8tP-21" target="rvnlkmC0Hyfo12VrQ8tP-31" edge="1">
          <mxGeometry relative="1" as="geometry">
            <mxPoint x="89" y="390" as="targetPoint" />
          </mxGeometry>
        </mxCell>
        <mxCell id="rvnlkmC0Hyfo12VrQ8tP-45" style="edgeStyle=orthogonalEdgeStyle;rounded=0;orthogonalLoop=1;jettySize=auto;html=1;entryX=0;entryY=0.5;entryDx=0;entryDy=0;entryPerimeter=0;" parent="rvnlkmC0Hyfo12VrQ8tP-2" target="rvnlkmC0Hyfo12VrQ8tP-21" edge="1">
          <mxGeometry relative="1" as="geometry">
            <mxPoint x="70" y="220" as="sourcePoint" />
            <mxPoint x="34.999999999999886" y="290" as="targetPoint" />
            <Array as="points">
              <mxPoint x="20" y="220" />
              <mxPoint x="20" y="310" />
            </Array>
          </mxGeometry>
        </mxCell>
        <mxCell id="rvnlkmC0Hyfo12VrQ8tP-74" value="&lt;font style=&quot;font-size: 10px;&quot;&gt;Yes&lt;/font&gt;" style="text;html=1;align=center;verticalAlign=middle;whiteSpace=wrap;rounded=0;" parent="rvnlkmC0Hyfo12VrQ8tP-2" vertex="1">
          <mxGeometry x="26" y="285" width="60" height="30" as="geometry" />
        </mxCell>
        <mxCell id="rvnlkmC0Hyfo12VrQ8tP-43" value="" style="group" parent="rvnlkmC0Hyfo12VrQ8tP-2" vertex="1" connectable="0">
          <mxGeometry x="139" y="360" width="30" height="30" as="geometry" />
        </mxCell>
        <mxCell id="rvnlkmC0Hyfo12VrQ8tP-31" value="" style="ellipse;whiteSpace=wrap;html=1;aspect=fixed;" parent="rvnlkmC0Hyfo12VrQ8tP-43" vertex="1">
          <mxGeometry width="30" height="30" as="geometry" />
        </mxCell>
        <mxCell id="rvnlkmC0Hyfo12VrQ8tP-33" value="" style="shape=waypoint;sketch=0;fillStyle=solid;size=6;pointerEvents=1;points=[];fillColor=none;resizable=0;rotatable=0;perimeter=centerPerimeter;snapToPoint=1;strokeWidth=6;" parent="rvnlkmC0Hyfo12VrQ8tP-43" vertex="1">
          <mxGeometry x="4.999999999999545" y="5" width="20" height="20" as="geometry" />
        </mxCell>
        <mxCell id="rvnlkmC0Hyfo12VrQ8tP-3" value="System" style="swimlane;startSize=20;html=1;fillColor=#F19C99;" parent="rvnlkmC0Hyfo12VrQ8tP-1" vertex="1">
          <mxGeometry x="290" y="20" width="270" height="410" as="geometry" />
        </mxCell>
        <mxCell id="rvnlkmC0Hyfo12VrQ8tP-12" value="&lt;font style=&quot;font-size: 10px;&quot;&gt;Start experiment as tuned&lt;br&gt;&lt;/font&gt;" style="rounded=1;whiteSpace=wrap;html=1;fillColor=#CCCCFF;" parent="rvnlkmC0Hyfo12VrQ8tP-3" vertex="1">
          <mxGeometry x="55" y="130" width="160" height="40" as="geometry" />
        </mxCell>
        <mxCell id="rvnlkmC0Hyfo12VrQ8tP-14" value="" style="endArrow=classic;html=1;rounded=0;exitX=0.5;exitY=1;exitDx=0;exitDy=0;entryX=0.5;entryY=0;entryDx=0;entryDy=0;" parent="rvnlkmC0Hyfo12VrQ8tP-3" source="rvnlkmC0Hyfo12VrQ8tP-12" target="rvnlkmC0Hyfo12VrQ8tP-17" edge="1">
          <mxGeometry width="50" height="50" relative="1" as="geometry">
            <mxPoint x="80" y="220" as="sourcePoint" />
            <mxPoint x="135" y="270" as="targetPoint" />
          </mxGeometry>
        </mxCell>
        <mxCell id="rvnlkmC0Hyfo12VrQ8tP-17" value="&lt;font style=&quot;font-size: 10px;&quot;&gt;Send process/result&lt;br&gt;&lt;/font&gt;" style="rounded=1;whiteSpace=wrap;html=1;fillColor=#CCCCFF;" parent="rvnlkmC0Hyfo12VrQ8tP-3" vertex="1">
          <mxGeometry x="55" y="200" width="160" height="40" as="geometry" />
        </mxCell>
        <mxCell id="rvnlkmC0Hyfo12VrQ8tP-47" value="&lt;font style=&quot;font-size: 10px;&quot;&gt;No&lt;/font&gt;" style="text;html=1;align=center;verticalAlign=middle;whiteSpace=wrap;rounded=0;" parent="rvnlkmC0Hyfo12VrQ8tP-3" vertex="1">
          <mxGeometry x="118" y="252" width="60" height="30" as="geometry" />
        </mxCell>
        <mxCell id="rvnlkmC0Hyfo12VrQ8tP-13" style="edgeStyle=orthogonalEdgeStyle;rounded=0;orthogonalLoop=1;jettySize=auto;html=1;" parent="rvnlkmC0Hyfo12VrQ8tP-1" source="rvnlkmC0Hyfo12VrQ8tP-8" target="rvnlkmC0Hyfo12VrQ8tP-12" edge="1">
          <mxGeometry relative="1" as="geometry" />
        </mxCell>
        <mxCell id="rvnlkmC0Hyfo12VrQ8tP-19" style="edgeStyle=orthogonalEdgeStyle;rounded=0;orthogonalLoop=1;jettySize=auto;html=1;entryX=1;entryY=0.5;entryDx=0;entryDy=0;" parent="rvnlkmC0Hyfo12VrQ8tP-1" source="rvnlkmC0Hyfo12VrQ8tP-17" target="rvnlkmC0Hyfo12VrQ8tP-18" edge="1">
          <mxGeometry relative="1" as="geometry" />
        </mxCell>
        <mxCell id="LcE3hwAR9ULEta9LT4_o-1" style="edgeStyle=orthogonalEdgeStyle;rounded=0;orthogonalLoop=1;jettySize=auto;html=1;entryX=0.5;entryY=1;entryDx=0;entryDy=0;" edge="1" parent="rvnlkmC0Hyfo12VrQ8tP-1" source="rvnlkmC0Hyfo12VrQ8tP-21" target="rvnlkmC0Hyfo12VrQ8tP-17">
          <mxGeometry relative="1" as="geometry" />
        </mxCell>
      </root>
    </mxGraphModel>
  </diagram>
</mxfile>
